<svg fill="none" height="2160" viewBox="0 0 3840 2160" width="3840" xmlns="http://www.w3.org/2000/svg" xmlns:xlink="http://www.w3.org/1999/xlink"><filter id="a" color-interpolation-filters="sRGB" filterUnits="userSpaceOnUse" height="3201.94" width="9380.61" x="-944.972" y="-505.972"><feFlood flood-opacity="0" result="BackgroundImageFix"/><feBlend in="SourceGraphic" in2="BackgroundImageFix" mode="normal" result="shape"/><feGaussianBlur result="effect1_foregroundBlur_2_2" stdDeviation="472.486"/></filter><filter id="b" color-interpolation-filters="sRGB" filterUnits="userSpaceOnUse" height="2591.06" width="2591.06" x="1273.8" y="-201.195"><feFlood flood-opacity="0" result="BackgroundImageFix"/><feBlend in="SourceGraphic" in2="BackgroundImageFix" mode="normal" result="shape"/><feGaussianBlur result="effect1_foregroundBlur_2_2" stdDeviation="419.098"/></filter><filter id="c" color-interpolation-filters="sRGB" filterUnits="userSpaceOnUse" height="2789.69" width="2789.69" x="658.49" y="-299.51"><feFlood flood-opacity="0" result="BackgroundImageFix"/><feBlend in="SourceGraphic" in2="BackgroundImageFix" mode="normal" result="shape"/><feGaussianBlur result="effect1_foregroundBlur_2_2" stdDeviation="434.755"/></filter><linearGradient id="d" gradientUnits="userSpaceOnUse" x1="2117.33" x2="1917.8" y1="1456.33" y2="479.769"><stop offset="0" stop-color="#0d0526"/><stop offset=".547511" stop-color="#7723cc" stop-opacity=".88625"/><stop offset="1" stop-color="#26c6f9" stop-opacity=".77"/></linearGradient><linearGradient id="e" gradientUnits="userSpaceOnUse" x1=".000001" x2="3849.33" y1="1144" y2="1143.33"><stop offset="0" stop-color="#fff" stop-opacity="0"/><stop offset=".124282" stop-color="#fff"/><stop offset=".484375" stop-color="#fff"/><stop offset=".822917" stop-color="#fff"/><stop offset="1" stop-color="#fff" stop-opacity="0"/></linearGradient><linearGradient id="f" gradientUnits="userSpaceOnUse" x1="1054.67" x2="2576" y1="372" y2="1709.33"><stop offset="0" stop-color="#b61ec4" stop-opacity=".98"/><stop offset=".181077" stop-color="#7f1488" stop-opacity=".98"/><stop offset=".404332" stop-color="#27086a"/><stop offset="1" stop-color="#ca2a80" stop-opacity=".84"/></linearGradient><mask id="g" height="2160" maskUnits="userSpaceOnUse" width="3840" x="0" y="0"><path d="m0 0h3840v2160h-3840z" fill="#c4c4c4"/></mask><mask id="h" height="1630" maskUnits="userSpaceOnUse" width="3814" x="0" y="280"><path d="m0 280h3813.33v1629.33h-3813.33z" fill="url(#e)"/></mask><path d="m0 0h3840v2160h-3840z" fill="#000"/><g mask="url(#g)"><g filter="url(#a)"><path d="m1824.12 812.405c-505.17 38.19-986.77-293.982-1389.443-262.924-759.954 58.615-292.362 1201.519-292.362 1201.519l7239.555-44.07s244.8-531.97 0-810.8c-249.22-283.866-863.84-436.655-1389.44-447.999-528.34-11.404-863.04 372.483-1389.44 402.464-635.06 36.17-757.18-351.052-1389.44-402.464-878.6-71.445-509.8 297.774-1389.43 364.274z" fill="url(#d)"/></g><g clip-rule="evenodd" fill="url(#f)" fill-opacity=".6" fill-rule="evenodd" mask="url(#h)"><path d="m2654.99 699.27c-111.85-18.652-254.41-73.432-448.21-186.723-222.75-130.214-421.27-196.86-614.35-200.879-193.11-4.019-380.33 54.621-580.44 174.232-98.805 59.056-195.429 65.785-294.839 47.458-82.002-15.117-165.645-47.215-253.947-81.101-19.026-7.302-38.269-14.686-57.758-22.002-219.643-82.445-468.7083-155.272-783.261 4.847l3.629 7.13c311.4656-158.548 557.773-86.709 776.821-4.487 19.34 7.26 38.484 14.607 57.45 21.887 88.323 33.9 172.816 66.33 255.616 81.594 100.841 18.59 199.543 11.819 300.389-48.459 199.18-119.055 384.94-177.081 576.18-173.101 191.27 3.982 388.46 70.002 610.47 199.788 194.21 113.532 337.73 168.83 450.93 187.707 113.36 18.903 196.16 1.257 268.76-30.716 36.23-15.952 69.88-35.452 103.4-55.633 5.9-3.551 11.79-7.121 17.69-10.698 27.71-16.784 55.62-33.698 85.31-49.278 71.87-37.722 153.92-67.502 266.66-67.502 518.83 0 799.16-99.747 949.91-200.003 75.39-50.137 118.33-100.371 142.44-138.224 12.04-18.92 19.38-34.728 23.71-45.859 2.17-5.565 3.58-9.9603 4.46-12.9895.44-1.5145.75-2.6877.94-3.4948.1-.4036.17-.7158.22-.9333l.06-.2552.01-.0737.01-.0232c0-.0078 0-.0141-3.92-.8115s-3.92-.8024-3.92-.8024v.004.0352l-.04.1775c-.04.1657-.1.4254-.19.7761-.17.7014-.44 1.7669-.85 3.1723-.82 2.8107-2.16 6.9805-4.23 12.3165-4.16 10.671-11.26 26.009-23.01 44.464-23.5 36.897-65.64 86.33-140.12 135.859-148.98 99.078-427.57 198.665-945.48 198.665-114.35 0-197.67 30.259-270.38 68.419-29.93 15.704-58.09 32.769-85.8 49.558-5.88 3.566-11.75 7.121-17.61 10.647-33.48 20.157-66.76 39.431-102.49 55.165-71.3 31.4-152.53 48.773-264.22 30.147z"/><path d="m2655.07 703.452c-111.89-21.146-254.48-77.607-448.29-190.905-222.82-130.254-421.39-190.226-614.49-187.546-193.09 2.679-380.27 68-580.3 187.566-98.765 59.031-195.348 64.116-294.744 43.31-81.849-17.133-165.333-51.743-253.457-88.276-19.185-7.954-38.589-15.998-58.245-23.974-219.63-89.115-468.7441-168.676-783.359-8.525l3.629 7.13c311.4034-158.516 557.662-80.076 776.722 8.808 19.503 7.914 38.805 15.917 57.928 23.846 88.149 36.55 172.489 71.52 255.143 88.821 100.853 21.111 199.597 16.029 300.483-44.273 199.26-119.1 385.06-183.78 576.32-186.434 191.25-2.654 388.39 56.708 610.33 186.454 194.2 113.525 337.69 170.475 450.85 191.859 113.3 21.411 196.08 7.141 268.7-21.474 36.23-14.277 69.89-32.105 103.42-50.728 7.09-3.939 14.18-7.911 21.28-11.894 26.53-14.879 53.32-29.899 81.74-43.831 71.89-35.246 153.98-63.385 266.76-63.385 518.83-.001 799.16-99.747 949.91-200.003 75.39-50.138 118.33-100.371 142.44-138.224 12.04-18.92 19.38-34.728 23.71-45.859 2.17-5.566 3.58-9.961 4.46-12.99.44-1.514.75-2.687.94-3.495.1-.403.17-.715.22-.933l.06-.255.01-.074.01-.023c0-.008 0-.014-3.92-.811-3.92-.798-3.92-.803-3.92-.803v.004.035l-.04.178c-.04.166-.1.425-.19.776-.17.701-.44 1.767-.85 3.172-.82 2.811-2.16 6.981-4.23 12.317-4.16 10.671-11.26 26.008-23.01 44.464-23.5 36.897-65.64 86.33-140.12 135.859-148.98 99.078-427.57 198.664-945.48 198.665-114.3 0-197.59 28.566-270.28 64.202-28.64 14.039-55.67 29.198-82.23 44.091-7.08 3.969-14.12 7.919-21.15 11.823-33.48 18.59-66.75 36.204-102.47 50.279-71.29 28.091-152.54 42.173-264.29 21.056z"/><path d="m2919.51 695.673c-142.27 49.467-325.1 43.474-712.73-183.126-222.89-130.295-421.51-183.588-614.62-174.208-193.07 9.376-380.21 81.373-580.17 200.895-98.723 59.006-195.266 62.449-294.651 39.164-81.705-19.143-165.04-56.26-252.998-95.435-19.333-8.611-38.89-17.321-58.702-25.962-219.615-95.785-468.7764-182.082-783.454-21.899l3.629 7.13c311.3408-158.484 557.551-73.447 776.627 22.102 19.655 8.572 39.106 17.237 58.376 25.82 87.984 39.194 172.181 76.7 254.697 96.033 100.864 23.631 199.648 20.24 300.576-40.086 199.33-119.145 385.17-190.482 576.45-199.772 191.23-9.287 388.33 43.42 610.2 173.125 388.39 227.045 573.84 234.386 719.4 183.775 36.24-12.602 69.9-28.756 103.44-45.82 8.42-4.284 16.83-8.621 25.27-12.974 25.24-13.024 50.76-26.192 77.77-38.501 71.92-32.769 154.04-59.267 266.87-59.267 518.83 0 799.16-99.747 949.91-200.003 75.39-50.137 118.33-100.37 142.44-138.223 12.04-18.92 19.38-34.729 23.71-45.86 2.17-5.565 3.58-9.96 4.46-12.989.44-1.515.75-2.688.94-3.495.1-.404.17-.716.22-.933l.06-.255.01-.074.01-.023c0-.008 0-.014-3.92-.812-3.92-.797-3.92-.802-3.92-.802v.004.035l-.04.178c-.04.165-.1.425-.19.776-.17.701-.44 1.767-.85 3.172-.82 2.811-2.16 6.981-4.23 12.317-4.16 10.671-11.26 26.008-23.01 44.463-23.5 36.897-65.64 86.331-140.12 135.86-148.98 99.077-427.57 198.664-945.48 198.664-114.25 0-197.51 26.875-270.18 59.988-27.21 12.396-52.98 25.691-78.26 38.737-8.41 4.337-16.76 8.646-25.1 12.886-33.46 17.024-66.73 32.977-102.44 45.395z"/><path d="m2919.67 708.955c-142.31 42.889-325.21 30.221-712.89-196.408-222.96-130.336-421.63-176.946-614.76-160.866-193.04 16.072-380.14 94.742-580.03 214.22-98.681 58.981-195.183 60.784-294.56 35.019-81.571-21.148-164.767-60.767-252.568-102.579-19.473-9.273-39.172-18.654-59.131-27.965-219.597-102.451-468.8052-195.489-783.546-35.274l3.629 7.13c311.2776-158.452 557.442-66.822 776.535 35.393 19.798 9.237 39.39 18.568 58.797 27.811 87.831 41.833 171.891 81.869 254.276 103.228 100.874 26.153 199.698 24.455 300.668-35.896 199.41-119.189 385.29-197.187 576.59-213.114 191.21-15.92 388.26 30.136 610.06 159.8 388.34 227.016 573.72 241.016 719.24 197.16 36.24-10.924 69.91-25.405 103.47-40.91 9.9-4.578 19.79-9.239 29.73-13.924 23.79-11.221 47.9-22.586 73.34-33.299 71.94-30.292 154.09-55.147 266.97-55.147 518.83 0 799.16-99.747 949.91-200.003 75.39-50.137 118.33-100.371 142.44-138.224 12.04-18.92 19.38-34.728 23.71-45.859 2.17-5.565 3.58-9.96 4.46-12.989.44-1.515.75-2.688.94-3.495.1-.404.17-.716.22-.933l.06-.256.01-.073.01-.023c0-.008 0-.015-3.92-.812-1.9-.386-2.87-.586-3.38-.69-.54-.11-.54-.112-.54-.112v.004.035l-.04.177c-.04.166-.1.426-.19.776-.17.702-.44 1.767-.85 3.173-.82 2.81-2.16 6.981-4.23 12.316-4.16 10.671-11.26 26.009-23.01 44.464-23.5 36.897-65.64 86.33-140.12 135.86-148.98 99.077-427.57 198.664-945.48 198.664-114.21 0-197.43 25.185-270.08 55.774-25.6 10.781-49.95 22.26-73.81 33.511-9.9 4.669-19.72 9.299-29.51 13.823-33.45 15.457-66.72 29.751-102.42 40.513z"/><path d="m2919.83 722.242c-142.35 36.309-325.33 16.962-713.05-209.695-223.03-130.378-421.75-170.301-614.9-147.519-193.01 22.765-380.08 108.105-579.89 227.539-98.639 58.956-195.1 59.121-294.47 30.878-81.445-23.149-164.512-65.267-252.166-109.711-19.604-9.94-39.438-19.996-59.534-29.982-219.577-109.116-468.8307-208.897-783.635-48.65l3.629 7.13c311.2141-158.42 557.333-60.201 776.446 48.684 19.933 9.905 39.657 19.907 59.194 29.815 87.686 44.466 171.617 87.028 253.879 110.409 100.88 28.673 199.745 28.671 300.757-31.706 199.48-119.233 385.39-203.893 576.73-226.461 191.2-22.552 388.19 16.859 609.92 146.481 388.3 226.988 573.61 247.641 719.07 210.539 36.25-9.246 69.92-22.052 103.49-35.998 11.58-4.811 23.13-9.746 34.76-14.719 22.18-9.481 44.67-19.099 68.35-28.25 71.97-27.816 154.16-51.025 267.08-51.025 518.83-.001 799.16-99.747 949.91-200.003 75.39-50.138 118.33-100.371 142.44-138.224 12.04-18.92 19.38-34.728 23.71-45.86 2.17-5.565 3.58-9.96 4.46-12.989.44-1.514.75-2.687.94-3.495.1-.403.17-.715.22-.933l.06-.255.01-.074.01-.023c0-.008 0-.014-3.92-.812-3.92-.797-3.92-.802-3.92-.802v.004.035l-.04.178c-.04.165-.1.425-.19.776-.17.701-.44 1.767-.85 3.172-.82 2.811-2.16 6.981-4.23 12.317-4.16 10.671-11.26 26.008-23.01 44.463-23.5 36.898-65.64 86.331-140.12 135.86-148.98 99.078-427.57 198.664-945.48 198.665-114.16 0-197.35 23.496-269.97 51.562-23.79 9.198-46.53 18.919-68.8 28.437-11.59 4.959-23.06 9.862-34.49 14.608-33.44 13.892-66.69 26.528-102.4 35.634z"/><path d="m2920 735.536c-142.41 29.727-325.45 3.693-713.22-222.989-223.1-130.421-421.88-163.65-615.03-134.167-192.98 29.456-380.02 121.464-579.76 240.854-98.595 58.93-195.016 57.461-294.382 26.737-81.328-25.146-164.273-69.759-251.788-116.83-19.728-10.61-39.688-21.346-59.914-32.012-219.555-115.777-468.8529-222.307-783.721-62.027l3.629 7.13c311.1503-158.387 557.225-53.583 776.36 61.974 20.061 10.578 39.909 21.255 59.569 31.831 87.549 47.095 171.357 92.178 253.502 117.577 100.884 31.193 199.79 32.89 300.845-27.513 199.55-119.277 385.49-210.602 576.86-239.813 191.19-29.183 388.13 3.587 609.79 133.166 388.25 226.963 573.5 254.264 718.9 223.913 50.66-10.576 96.55-28.2 144.19-46.496 20.33-7.811 40.98-15.744 62.46-23.303 72-25.338 154.23-46.9 267.2-46.9 518.83-.001 799.16-99.747 949.91-200.003 75.39-50.138 118.33-100.371 142.44-138.224 12.04-18.92 19.38-34.728 23.71-45.86 2.17-5.565 3.58-9.96 4.46-12.989.44-1.514.75-2.687.94-3.495.1-.403.17-.715.22-.933l.06-.255.01-.074.01-.023c0-.008 0-.014-3.92-.812-3.92-.797-3.92-.802-3.92-.802v.004.035l-.04.178c-.04.165-.1.425-.19.776-.17.701-.44 1.767-.85 3.172-.82 2.811-2.16 6.981-4.23 12.317-4.16 10.671-11.26 26.008-23.01 44.463-23.5 36.898-65.64 86.331-140.12 135.86-148.98 99.078-427.57 198.664-945.48 198.665-114.12 0-197.27 21.809-269.85 47.354-21.96 7.729-42.87 15.761-63.34 23.621-47.34 18.189-92.29 35.454-142.3 45.893z"/><path d="m2920.18 748.836c-142.48 23.141-325.59-9.582-713.4-236.289-223.18-130.465-422.01-156.996-615.17-120.811-192.93 36.143-379.96 134.819-579.62 254.165-98.552 58.904-194.932 55.802-294.296 22.598-81.218-27.14-164.049-74.245-251.433-123.939-19.845-11.285-39.924-22.704-60.272-34.053-219.531-122.437-468.8718-235.717-783.804-75.405l3.629 7.13c311.0862-158.355 557.118-46.968 776.278 75.262 20.181 11.256 40.148 22.612 59.924 33.859 87.419 49.721 171.11 97.321 253.142 124.733 100.887 33.713 199.833 37.111 300.932-23.318 199.63-119.321 385.58-217.312 577-253.169 191.18-35.815 388.07-9.68 609.65 119.855 388.21 226.938 573.39 260.883 718.72 237.279 52.98-8.605 100.68-24.889 150.65-41.949 18.27-6.234 36.83-12.572 56.07-18.677 72.03-22.858 154.3-42.773 267.31-42.773 518.83 0 799.16-99.747 949.91-200.003 75.39-50.137 118.33-100.371 142.44-138.223 12.04-18.92 19.38-34.729 23.71-45.86 2.17-5.565 3.58-9.96 4.46-12.989.44-1.515.75-2.688.94-3.495.07-.271.12-.501.17-.688l.05-.245.06-.255.01-.074.01-.023c0-.008 0-.014-3.92-.812-2.7-.551-3.54-.723-3.8-.777-.12-.024-.12-.025-.12-.025v.004.035l-.04.177c-.04.166-.1.426-.19.777-.17.701-.44 1.766-.85 3.172-.82 2.81-2.16 6.981-4.23 12.317-4.16 10.671-11.26 26.008-23.01 44.463-23.5 36.897-65.64 86.33-140.12 135.86-148.98 99.077-427.57 198.664-945.48 198.664-114.07 0-197.18 20.125-269.73 43.148-19.62 6.225-38.4 12.637-56.78 18.911-49.75 16.984-96.54 32.955-148.8 41.443z"/><path d="m2920.36 762.144c-142.55 16.548-325.73-22.867-713.58-249.597-223.25-130.509-422.14-150.337-615.3-107.452-192.89 42.827-379.9 148.171-579.49 267.472-98.507 58.877-194.848 54.145-294.212 18.46-81.114-29.13-163.838-78.724-251.098-131.037-19.955-11.964-40.148-24.069-60.612-36.104-219.504-129.094-468.8865-249.129-783.883-88.784l3.629 7.13c311.0219-158.322 557.012-40.357 776.198 88.549 20.296 11.937 40.375 23.975 60.26 35.898 87.297 52.343 170.876 102.455 252.802 131.878 100.887 36.231 199.872 41.333 301.016-19.123 199.7-119.366 385.67-224.022 577.13-266.529 191.19-42.448 388.01-22.942 609.52 106.549 388.17 226.915 573.28 267.499 718.54 250.637 55.63-6.457 105.38-21.359 158.09-37.146 15.88-4.756 32.03-9.592 48.68-14.302 72.08-20.378 154.38-38.643 267.44-38.643 518.83 0 799.16-99.747 949.91-200.003 75.39-50.137 118.33-100.37 142.44-138.223 12.04-18.92 19.38-34.729 23.71-45.86 2.17-5.565 3.58-9.96 4.46-12.989.44-1.515.75-2.688.94-3.495.1-.403.17-.716.22-.933l.06-.255.01-.074.01-.023c0-.008 0-.014-3.92-.812-2.22-.453-3.19-.649-3.6-.735-.32-.065-.32-.067-.32-.067v.004.035l-.04.178c-.04.165-.1.425-.19.776-.17.701-.44 1.767-.85 3.172-.82 2.811-2.16 6.981-4.23 12.317-4.16 10.671-11.26 26.008-23.01 44.463-23.5 36.897-65.64 86.331-140.12 135.86-148.98 99.078-427.57 198.664-945.48 198.664-114.03 0-197.1 18.441-269.61 38.945-16.93 4.788-33.25 9.674-49.23 14.459-52.56 15.739-101.43 30.372-156.29 36.74z"/><path d="m2920.54 775.461c-142.63 9.949-325.87-36.163-713.76-262.914-223.33-130.555-422.28-143.671-615.42-94.088-192.16 49.33-378.53 160.726-577.25 279.505l-2.12 1.27c-98.462 58.85-194.763 52.491-294.13 14.324-81.016-31.119-163.641-83.2-250.783-138.129-20.06-12.644-40.359-25.439-60.933-38.164-219.476-135.748-468.8981-262.541-783.959-102.163l3.629 7.13c310.9575-158.289 556.907-33.749 776.122 101.837 20.404 12.62 40.589 25.344 60.578 37.946 87.181 54.96 170.654 107.582 252.478 139.011 100.884 38.75 199.909 45.558 301.098-14.925l1.46-.875c199.23-119.081 384.76-229.977 575.79-279.018 191.2-49.083 387.97-36.2 609.4 93.246 388.13 226.894 573.18 274.115 718.36 263.987 58.66-4.092 110.76-17.564 166.72-32.036 13.12-3.39 26.44-6.836 40.11-10.228 72.11-17.896 154.46-34.51 267.56-34.51 518.83 0 799.16-99.747 949.91-200.003 75.39-50.137 118.33-100.371 142.44-138.223 12.04-18.92 19.38-34.729 23.71-45.86 2.17-5.565 3.58-9.96 4.46-12.989.44-1.515.75-2.688.94-3.495.05-.18.09-.342.12-.485.04-.178.08-.328.1-.448l.06-.255.01-.074.01-.023c0-.008 0-.014-3.92-.812-3.92-.797-3.92-.802-3.92-.802v.004.035l-.04.177c-.04.166-.1.426-.19.777-.17.701-.44 1.766-.85 3.172-.82 2.811-2.16 6.981-4.23 12.317-4.16 10.671-11.26 26.008-23.01 44.463-23.5 36.897-65.64 86.33-140.12 135.86-148.98 99.077-427.57 198.664-945.48 198.664-113.98 0-197.01 16.759-269.49 34.745-13.84 3.436-27.28 6.909-40.45 10.315-55.9 14.451-107.14 27.697-165.01 31.734z"/><path d="m2920.73 788.786c-142.72 3.344-326.03-49.467-713.95-276.239-223.41-130.601-422.41-137-615.55-80.72-174.43 50.83-344.14 152.832-522.6 260.089-18.78 11.288-37.65 22.634-56.64 33.985-98.416 58.823-194.678 50.839-294.049 10.189-80.925-33.104-163.456-87.67-250.487-145.211-20.159-13.329-40.559-26.816-61.236-40.234-109.71-71.191-226.958-140.195-356.1372-171.325-129.35-31.171-270.5038-24.336-427.8958 55.782l3.629 7.13c155.617-79.215 294.8109-85.88 422.3926-55.134 127.7524 30.786 244.0204 99.116 353.6564 170.258 20.507 13.307 40.793 26.721 60.881 40.004 87.071 57.575 170.441 112.703 252.168 146.135 100.879 41.267 199.943 49.783 301.178-10.727 18.97-11.34 37.82-22.666 56.56-33.927 178.66-107.372 347.44-208.812 520.82-259.333 191.21-55.72 387.92-49.454 609.27 79.946 388.1 226.873 573.07 280.73 718.18 277.329 62.19-1.457 116.97-13.448 176.85-26.557 9.86-2.157 19.85-4.344 30.03-6.52 72.16-15.411 154.54-30.372 267.69-30.372 518.83 0 799.16-99.747 949.91-200.003 75.39-50.137 118.33-100.371 142.44-138.224 12.04-18.919 19.38-34.728 23.71-45.859 2.17-5.565 3.58-9.96 4.46-12.989.44-1.515.75-2.688.94-3.495.1-.404.17-.716.22-.933l.06-.255.01-.074.01-.023c0-.008 0-.015-3.92-.812s-3.92-.802-3.92-.802v.004.035l-.04.177c-.04.166-.1.426-.19.776-.17.702-.44 1.767-.85 3.173-.82 2.81-2.16 6.981-4.23 12.317-4.16 10.67-11.26 26.008-23.01 44.463-23.5 36.897-65.64 86.33-140.12 135.86-148.98 99.077-427.57 198.664-945.48 198.664-113.94 0-196.93 15.079-269.36 30.549-10.26 2.191-20.29 4.387-30.16 6.547-59.92 13.11-113.87 24.918-175.24 26.356z"/><path d="m2920.91 802.119c-142.8-3.27-326.17-62.78-714.13-289.572-223.49-130.648-422.55-130.324-615.67-67.349-159.57 52.034-315.25 146.927-477.23 245.666-33.66 20.519-67.6 41.203-101.89 61.703-98.37 58.795-194.593 49.19-293.971 6.056-80.839-35.087-163.281-92.136-250.206-152.287-20.253-14.015-40.749-28.198-61.525-42.311-109.706-74.523-226.952-146.875-356.1361-180.521-129.3643-33.692-270.5469-28.535-427.9669 51.598l3.629 7.13c155.589-79.201 294.7542-84.21 422.3216-50.986 127.7474 33.272 244.0174 104.919 353.6574 179.396 20.605 13.998 40.986 28.103 61.168 42.07 86.967 60.187 170.239 117.817 251.872 153.249 100.873 43.783 199.976 54.011 301.257-6.527 34.46-20.596 68.5-41.344 102.22-61.9 161.98-98.724 316.68-193.013 475.28-244.731 191.23-62.358 387.88-62.702 609.15 66.651 388.06 226.853 572.98 287.343 717.99 290.662 66.33 1.519 124.19-8.939 188.88-20.631 5.96-1.077 11.98-2.164 18.06-3.253 72.2-12.925 154.62-26.231 267.82-26.231 518.83-.001 799.16-99.747 949.91-200.003 75.39-50.138 118.33-100.371 142.44-138.224 12.04-18.92 19.38-34.728 23.71-45.86 2.17-5.565 3.58-9.96 4.46-12.989.44-1.514.75-2.687.94-3.495.06-.216.1-.405.14-.568.03-.142.06-.264.08-.365l.06-.255.01-.074.01-.023c0-.008 0-.014-3.92-.812-3.92-.797-3.92-.802-3.92-.802v.004.035l-.04.178c-.04.166-.1.425-.19.776-.17.701-.44 1.767-.85 3.172-.82 2.811-2.16 6.981-4.23 12.317-4.16 10.671-11.26 26.008-23.01 44.464-23.5 36.897-65.64 86.33-140.12 135.859-148.98 99.078-427.57 198.664-945.48 198.665-113.89 0-196.85 13.399-269.23 26.356-6.06 1.085-12.04 2.166-17.96 3.236-64.82 11.711-121.9 22.025-187.39 20.526z"/><path d="m50.2219 387.69c-129.3773-36.213-270.5889-32.735-428.0369 47.412l3.629 7.13c155.561-79.187 294.6971-82.541 422.2515-46.838 127.7445 35.756 244.0165 110.722 353.6595 188.535 20.699 14.69 41.172 29.49 61.443 44.144 86.868 62.796 170.046 122.925 251.589 160.355 100.864 46.297 200.005 58.239 301.333-2.327 47.58-28.442 94.37-57.547 140.62-86.32 148.18-92.188 290.9-180.976 437-233.684 191.25-69.001 387.84-75.948 609.03 53.357 388.03 226.833 572.88 293.956 717.81 303.987 71.22 4.93 132.64-3.945 203.33-14.159l3.66-.528c72.25-10.436 154.71-22.087 267.95-22.087 518.83 0 799.16-99.747 949.91-200.003 75.39-50.137 118.33-100.37 142.44-138.223 12.04-18.92 19.38-34.729 23.71-45.86 2.17-5.565 3.58-9.96 4.46-12.989.44-1.514.75-2.688.94-3.495.07-.255.12-.473.16-.654l.06-.279.06-.255.01-.074.01-.023c0-.008 0-.014-3.92-.812-3.92-.797-3.92-.802-3.92-.802v.004.035l-.04.178c-.04.165-.1.425-.19.776-.17.701-.44 1.767-.85 3.172-.82 2.811-2.16 6.981-4.23 12.317-4.16 10.671-11.26 26.008-23.01 44.463-23.5 36.897-65.64 86.331-140.12 135.86-148.98 99.078-427.57 198.664-945.48 198.664-113.84 0-196.76 11.722-269.1 22.169l-3.33.482c-70.91 10.245-131.6 19.013-201.96 14.143-142.9-9.891-326.33-76.102-714.32-302.914-223.57-130.695-422.69-123.641-615.79-53.976-146.96 53.023-290.69 142.444-439.05 234.744-46.12 28.697-92.7 57.673-139.95 85.919-98.323 58.767-194.508 47.542-293.895 1.923-80.758-37.068-163.115-96.598-249.94-159.356-20.343-14.704-40.93-29.585-61.8-44.396-109.702-77.854-226.946-153.555-356.1331-189.715z"/><path d="m50.2909 391.876c-129.389-38.734-270.6289-36.935-428.1059 43.226l3.629 7.13c155.533-79.172 294.6399-80.874 422.1826-42.692 127.7414 38.242 244.0164 116.527 353.6644 197.675 20.788 15.386 41.348 30.882 61.704 46.225 86.773 65.403 169.861 128.029 251.319 167.452 100.852 48.811 200.03 62.47 301.406 1.875 58.6-35.024 116.18-71.758 173.04-108.034 39.97-25.504 79.6-50.781 118.97-75.079 95.54-58.964 189.97-112.399 285.72-150.267 191.28-75.647 387.81-89.19 608.92 40.067 388 226.814 572.79 300.569 717.62 317.304 72.45 8.37 134.74 2.454 207.04-5.488 4.67-.512 9.38-1.034 14.14-1.56 68.95-7.631 147.97-16.376 253.95-16.376 518.83 0 799.16-99.747 949.91-200.003 75.39-50.138 118.33-100.371 142.44-138.224 12.04-18.92 19.38-34.728 23.71-45.859 2.17-5.566 3.58-9.961 4.46-12.99.44-1.514.75-2.687.94-3.495.1-.403.17-.715.22-.933l.06-.255.01-.074.01-.023c0-.008 0-.014-3.92-.811l-1.47-.301c-2.45-.498-2.45-.502-2.45-.502v.004.035l-.04.178c-.04.166-.1.425-.19.776-.17.701-.44 1.767-.85 3.172-.82 2.811-2.16 6.981-4.23 12.317-4.16 10.671-11.26 26.009-23.01 44.464-23.5 36.897-65.64 86.33-140.12 135.859-148.98 99.078-427.57 198.665-945.48 198.665-106.43 0-185.83 8.788-254.8 16.421-4.77.528-9.49 1.05-14.16 1.563-72.28 7.94-133.78 13.75-205.25 5.492-142.99-16.521-326.48-89.432-714.5-316.263-223.65-130.744-422.83-116.953-615.9-40.6-96.42 38.132-191.33 91.864-286.98 150.899-39.62 24.45-79.3 49.768-119.29 75.276-56.72 36.193-114.05 72.767-172.62 107.778-98.275 58.739-194.423 45.898-293.821-2.209-80.681-39.047-162.96-101.056-249.689-166.419-20.428-15.395-41.102-30.976-62.06-46.487-109.698-81.185-226.939-160.234-356.1291-198.909z"/><path d="m50.3588 396.064c-129.3994-41.256-270.6678-41.138-428.1738 39.038l3.629 7.13c155.503-79.158 294.5823-79.207 422.1147-38.546 127.7403 40.727 244.0183 122.332 353.6703 206.816 20.874 16.083 41.517 32.279 61.955 48.314 86.682 68.007 169.683 133.126 251.058 174.541 100.839 51.322 200.054 66.7 301.478 6.077 68.31-40.829 135.13-84.692 201.08-127.985 30.49-20.019 60.8-39.916 90.99-59.334 95.56-61.476 190-118.243 285.77-159.44 191.31-82.297 387.79-102.429 608.81 26.779 387.96 226.794 572.7 307.183 717.44 330.612 72.44 11.725 134.72 9.164 207.09 3.717 11.68-.879 23.63-1.834 35.93-2.817 63.88-5.104 137.24-10.966 232.29-10.966 518.83 0 799.16-99.747 949.91-200.002 75.39-50.138 118.33-100.371 142.44-138.224 12.04-18.92 19.38-34.728 23.71-45.86 2.17-5.565 3.58-9.96 4.46-12.989.22-.764.41-1.442.57-2.029.15-.576.28-1.066.37-1.466.1-.403.17-.715.22-.933l.06-.255.01-.074.01-.023c0-.008 0-.014-3.92-.812-3.92-.797-3.92-.802-3.92-.802v.004.035l-.04.178c-.04.165-.1.425-.19.776-.17.701-.44 1.767-.85 3.172-.82 2.811-2.16 6.981-4.23 12.317-4.16 10.671-11.26 26.008-23.01 44.463-23.5 36.897-65.64 86.331-140.12 135.86-148.98 99.078-427.57 198.664-945.48 198.664-95.4 0-169.09 5.889-232.98 10.995-12.28.982-24.2 1.934-35.84 2.811-72.22 5.435-133.73 7.932-205.21-3.637-143.08-23.16-326.62-102.771-714.68-329.622-223.74-130.793-422.98-110.258-616.01-27.221-96.41 41.47-191.3 98.536-286.94 160.06-30.32 19.504-60.7 39.448-91.23 59.49-65.87 43.245-132.45 86.949-200.61 127.691-98.227 58.71-194.339 44.255-293.75-6.34-80.608-41.025-162.812-105.512-249.45-173.478-20.509-16.088-41.266-32.371-62.308-48.584-109.694-84.516-226.932-166.911-356.1232-208.101z"/><path d="m50.4255 400.253c-129.4084-43.777-270.7055-45.342-428.2405 34.849l3.629 7.13c155.474-79.143 294.5246-77.541 422.0479-34.401 127.7401 43.213 244.0221 128.139 353.6781 215.958 20.956 16.783 41.678 33.68 62.194 50.408 86.596 70.609 169.513 138.219 250.808 181.624 100.825 53.831 200.075 70.932 301.548 10.28 76.75-45.878 151.59-96.544 225.44-146.545 22.31-15.105 44.54-30.149 66.69-44.982 95.58-63.987 190.03-124.086 285.82-168.613 95.76-44.516 192.7-73.39 293.25-75.045 100.51-1.653 204.85 23.881 315.45 88.538 387.93 226.775 572.62 313.798 717.27 343.913 72.42 15.077 134.69 15.871 207.12 12.924 20.13-.819 41.03-1.926 63.16-3.097 57.51-3.045 123.27-6.527 205.2-6.527 518.83 0 799.16-99.747 949.91-200.003 75.39-50.137 118.33-100.371 142.44-138.224 12.04-18.92 19.38-34.728 23.71-45.859 2.17-5.565 3.58-9.96 4.46-12.989.44-1.515.75-2.688.94-3.495.1-.404.17-.716.22-.933l.06-.256.01-.073.01-.023c0-.008 0-.015-3.92-.812s-3.92-.802-3.92-.802v.004.035l-.04.177c-.04.166-.1.426-.19.776-.17.702-.44 1.767-.85 3.173-.82 2.81-2.16 6.981-4.23 12.316-4.16 10.671-11.26 26.009-23.01 44.464-23.5 36.897-65.64 86.33-140.12 135.86-148.98 99.077-427.57 198.664-945.48 198.664-82.15 0-148.25 3.5-205.82 6.547-22.07 1.169-42.88 2.271-62.87 3.084-72.15 2.935-133.67 2.12-205.16-12.763-143.17-29.808-326.77-116.118-714.86-342.988-111.78-65.343-217.55-91.309-319.62-89.629-102.01 1.678-200.09 30.971-296.5 75.788-96.38 44.807-191.27 105.208-286.89 169.221-22.23 14.885-44.5 29.963-66.85 45.088-73.81 49.976-148.39 100.469-224.93 146.219-98.178 58.68-194.254 42.615-293.68-10.471-80.539-43.001-162.673-109.965-249.224-180.53-20.586-16.784-41.422-33.771-62.545-50.688-109.69-87.847-226.924-173.588-356.1155-217.292z"/><path d="m50.4255 426.919c-129.4084-43.777-270.7055-45.342-428.2405 34.849l3.629 7.13c155.474-79.142 294.5246-77.54 422.0479-34.401 127.7401 43.213 244.0221 128.139 353.6781 215.959 20.956 16.783 41.678 33.68 62.194 50.408 86.596 70.609 169.513 138.218 250.808 181.623 100.825 53.832 200.075 70.933 301.548 10.28 84.17-50.312 166.02-107.549 246.8-164.042 15.16-10.607 30.29-21.188 45.39-31.691 95.6-66.499 190.06-129.931 285.86-177.789 95.78-47.847 192.72-80.029 293.25-84.165 100.47-4.133 204.78 19.736 315.35 84.374 387.9 226.755 572.54 320.414 717.1 357.206 72.4 18.427 134.66 22.576 207.15 22.134 30.17-.184 62.15-1.164 97.36-2.243 7.04-.216 14.22-.436 21.53-.654 43.89-1.31 92.9-2.563 149.61-2.563 518.83-.001 799.16-99.747 949.91-200.003 75.39-50.138 118.33-100.371 142.44-138.224 12.04-18.92 19.38-34.728 23.71-45.859 2.17-5.566 3.58-9.961 4.46-12.99.44-1.514.75-2.687.94-3.495.1-.403.17-.715.22-.933l.06-.255.01-.074.01-.023c0-.008 0-.014-3.92-.811-3.92-.798-3.92-.803-3.92-.803v.004.035l-.04.178c-.04.166-.1.425-.19.776-.17.701-.44 1.767-.85 3.172-.82 2.811-2.16 6.981-4.23 12.317-4.16 10.671-11.26 26.008-23.01 44.464-23.5 36.897-65.64 86.33-140.12 135.859-148.98 99.078-427.57 198.664-945.48 198.665-56.83 0-105.94 1.256-149.85 2.566-7.33.219-14.51.439-21.56.655-35.21 1.079-67.07 2.056-97.14 2.239-72.09.44-133.62-3.686-205.13-21.886-143.26-36.463-326.91-129.471-715.03-356.361-111.81-65.362-217.62-89.66-319.72-85.46-102.03 4.197-200.1 36.849-296.5 85.002-96.37 48.142-191.25 111.877-286.85 178.378-15.13 10.527-30.28 21.123-45.46 31.739-80.79 56.495-162.36 113.542-246.26 163.694-98.178 58.681-194.254 42.615-293.68-10.47-80.539-43.001-162.673-109.965-249.224-180.531-20.586-16.783-41.422-33.771-62.545-50.688-109.69-87.847-226.924-173.588-356.1155-217.292z"/><path d="m50.4255 453.586c-129.4084-43.777-270.7055-45.342-428.2405 34.849l3.629 7.13c155.474-79.142 294.5246-77.54 422.0479-34.401 127.7401 43.213 244.0221 128.139 353.6781 215.958 20.956 16.784 41.678 33.68 62.194 50.409 86.596 70.609 169.513 138.218 250.808 181.623 100.825 53.832 200.075 70.932 301.548 10.28 90.74-54.237 178.75-117.882 265.65-180.721 8.88-6.418 17.74-12.828 26.6-19.219 95.61-69.011 190.08-135.776 285.89-186.965 95.8-51.18 192.74-86.671 293.26-93.287 100.44-6.612 204.71 15.593 315.25 80.212 387.86 226.734 572.46 327.032 716.93 370.494 114.47 34.438 203.86 33.19 348.47 31.171 38.12-.533 80.08-1.119 127.35-1.119 518.83 0 799.16-99.747 949.91-200.002 75.39-50.138 118.33-100.371 142.44-138.224 12.04-18.92 19.38-34.729 23.71-45.86 2.17-5.565 3.58-9.96 4.46-12.989.44-1.514.75-2.688.94-3.495.1-.403.17-.716.22-.933l.06-.255.01-.074.01-.023c0-.008 0-.014-3.92-.812-3.92-.797-3.92-.802-3.92-.802v.004.035l-.04.178c-.04.165-.1.425-.19.776-.17.701-.44 1.767-.85 3.172-.82 2.811-2.16 6.981-4.23 12.317-4.16 10.671-11.26 26.008-23.01 44.463-23.5 36.897-65.64 86.331-140.12 135.86-148.98 99.078-427.57 198.664-945.48 198.664-47.65 0-89.82.586-128.04 1.117-144.34 2.004-232.28 3.225-345.48-30.83-143.35-43.127-327.03-142.829-715.19-369.74-111.84-65.381-217.69-88.01-319.81-81.288-102.06 6.717-200.13 42.726-296.51 94.213-96.35 51.477-191.22 118.546-286.8 187.535-8.86 6.388-17.71 12.793-26.58 19.203-86.94 62.873-174.67 126.311-265.09 180.357-98.178 58.681-194.254 42.615-293.68-10.47-80.539-43.001-162.673-109.965-249.224-180.531-20.586-16.783-41.422-33.771-62.545-50.688-109.69-87.847-226.924-173.588-356.1155-217.292z"/><path d="m50.4255 480.253c-129.4084-43.777-270.7055-45.342-428.2405 34.849l3.629 7.13c155.474-79.143 294.5246-77.541 422.0479-34.401 127.7401 43.213 244.0221 128.139 353.6781 215.958 20.956 16.783 41.678 33.68 62.194 50.409 86.596 70.608 169.513 138.218 250.808 181.623 100.825 53.831 200.075 70.929 301.548 10.28 96.59-57.733 190.07-127.67 282.42-196.751 3.29-2.467 6.59-4.932 9.88-7.396 95.63-71.524 190.1-141.621 285.94-196.143 95.81-54.514 192.76-93.314 293.26-102.41 100.41-9.088 204.65 11.453 315.15 76.053 387.82 226.71 572.39 333.652 716.77 383.776 128.44 44.592 225.21 44.245 403.95 43.604 22.62-.081 46.55-.167 72.03-.167 518.83 0 799.16-99.747 949.91-200.003 75.39-50.137 118.33-100.371 142.44-138.224 12.04-18.919 19.38-34.728 23.71-45.859 2.17-5.565 3.58-9.96 4.46-12.989.44-1.515.75-2.688.94-3.495.1-.404.17-.716.22-.933l.06-.255.01-.074.01-.023c0-.008 0-.015-3.92-.812s-3.92-.802-3.92-.802v.004.035l-.04.177c-.04.166-.1.426-.19.776-.17.702-.44 1.767-.85 3.173-.82 2.81-2.16 6.981-4.23 12.317-4.16 10.67-11.26 26.008-23.01 44.463-23.5 36.897-65.64 86.33-140.12 135.86-148.98 99.077-427.57 198.664-945.48 198.664-25.47 0-49.38.084-71.95.163-178.97.629-274.32.964-401.41-43.158-143.44-49.798-327.15-156.19-715.35-383.125-111.87-65.4-217.76-86.359-319.91-77.114-102.07 9.238-200.14 48.604-296.5 103.424-96.34 54.811-191.2 125.214-286.77 196.69-3.25 2.433-6.51 4.867-9.76 7.302-92.44 69.156-185.63 138.87-281.85 196.385-98.178 58.68-194.254 42.615-293.68-10.47-80.539-43.002-162.673-109.966-249.224-180.531-20.586-16.784-41.422-33.771-62.545-50.688-109.69-87.847-226.924-173.588-356.1155-217.292z"/><path d="m50.4255 506.919c-129.4084-43.777-270.7055-45.342-428.2405 34.85l3.629 7.129c155.474-79.142 294.5246-77.54 422.0479-34.4 127.7401 43.212 244.0221 128.138 353.6781 215.958 20.956 16.783 41.678 33.68 62.194 50.408 86.596 70.609 169.513 138.219 250.808 181.623 100.825 53.833 200.075 70.933 301.548 10.28 100.06-59.81 196.79-134.378 292.35-208.353l5.09-3.933c93.91-72.699 186.73-144.557 280.89-201.389 95.83-57.848 192.78-99.959 293.27-111.535 100.39-11.563 204.58 7.316 315.05 71.897 61.22 35.784 117.37 68.75 169.09 99.12 275.95 162.011 426.02 250.119 547.53 297.932 144.42 56.828 248.71 56.828 474.7 56.828h1.43c518.83 0 799.16-99.747 949.91-200.003 75.39-50.137 118.33-100.371 142.44-138.224 12.04-18.92 19.38-34.728 23.71-45.859 2.17-5.565 3.58-9.96 4.46-12.99.44-1.514.75-2.687.94-3.494.1-.404.17-.716.22-.934l.06-.255.01-.074.01-.023c0-.008 0-.014-3.92-.811-3.92-.798-3.92-.803-3.92-.803v.004.035l-.04.178c-.04.166-.1.425-.19.776-.17.702-.44 1.767-.85 3.172-.82 2.811-2.16 6.981-4.23 12.317-4.16 10.671-11.26 26.009-23.01 44.464-23.5 36.897-65.64 86.33-140.12 135.859-148.98 99.078-427.57 198.665-945.48 198.665h-.44c-226.87 0-329.76 0-472.76-56.272-120.88-47.565-270.27-135.271-546.32-297.337-51.73-30.373-107.91-63.357-169.19-99.178-111.91-65.419-217.83-84.707-320.01-72.937-102.08 11.758-200.15 54.48-296.49 112.633-94.55 57.075-187.69 129.177-281.47 201.769l-5.26 4.075c-95.63 74.025-191.98 148.291-291.56 207.813-98.178 58.68-194.254 42.62-293.68-10.47-80.539-43.001-162.673-109.965-249.224-180.53-20.586-16.784-41.422-33.771-62.545-50.689-109.69-87.847-226.924-173.588-356.1155-217.292z"/><path d="m50.4255 533.586c-129.4084-43.777-270.7055-45.342-428.2405 34.849l3.629 7.13c155.474-79.142 294.5246-77.54 422.0479-34.401 127.7401 43.213 244.0221 128.139 353.6781 215.958 20.956 16.784 41.678 33.68 62.194 50.409 86.596 70.609 169.513 138.218 250.808 181.623 100.825 53.836 200.075 70.936 301.548 10.28 100.09-59.826 196.83-136.077 292.41-212.56 6.21-4.972 12.42-9.946 18.62-14.915 89.32-71.54 177.74-142.369 267.38-199.587 95.85-61.184 192.8-106.606 293.28-120.66 100.37-14.038 204.52 3.181 314.96 67.742 120.48 70.427 221.34 130.582 307.47 181.95 191.05 113.947 309.62 184.663 409 228.375 144.73 63.654 249.13 70.221 476.28 70.221 518.83 0 799.16-99.746 949.91-200.002 75.39-50.138 118.33-100.371 142.44-138.224 12.04-18.92 19.38-34.728 23.71-45.86 2.17-5.565 3.58-9.96 4.46-12.989.44-1.514.75-2.687.94-3.495.1-.403.17-.715.22-.933l.06-.255.01-.074.01-.023c0-.008 0-.014-3.92-.812-3.92-.797-3.92-.802-3.92-.802v.004.035l-.04.178c-.04.165-.1.425-.19.776-.17.701-.44 1.767-.85 3.172-.82 2.811-2.16 6.981-4.23 12.317-4.16 10.671-11.26 26.008-23.01 44.463-23.5 36.898-65.64 86.331-140.12 135.86-148.98 99.078-427.57 198.664-945.48 198.665-227.01 0-329.96-6.61-473.06-69.545-98.91-43.504-216.84-113.838-407.5-227.556-86.2-51.408-187.26-111.683-308.15-182.353-111.94-65.439-217.9-83.053-320.11-68.758-102.08 14.279-200.15 60.357-296.47 121.84-90.02 57.46-178.77 128.548-267.99 200.017-6.24 4.994-12.47 9.989-18.71 14.981-95.62 76.517-191.96 152.433-291.51 211.94-98.178 58.683-194.254 42.613-293.68-10.47-80.539-43.001-162.673-109.965-249.224-180.531-20.586-16.783-41.422-33.771-62.545-50.688-109.69-87.847-226.924-173.588-356.1155-217.292z"/><path d="m50.4255 560.253c-129.4084-43.777-270.7055-45.342-428.2405 34.849l3.629 7.13c155.474-79.142 294.5246-77.54 422.0479-34.401 127.7401 43.213 244.0221 128.139 353.6781 215.959 20.956 16.783 41.678 33.68 62.194 50.408 86.596 70.609 169.513 138.218 250.808 181.622 100.825 53.83 200.075 70.93 301.548 10.28 100.12-59.841 196.87-137.775 292.45-216.766 10.31-8.515 20.6-17.042 30.88-25.56 85.17-70.573 169.61-140.542 255.16-198.121 95.87-64.521 192.82-113.255 293.3-129.789 100.34-16.511 204.46-.951 314.86 63.59 168.56 98.538 298.64 178.166 403.68 242.469 15.82 9.691 31.09 19.033 45.82 28.039 112.5 68.744 194.67 118.007 266.83 153.087 144.72 70.351 249.11 83.621 476.42 83.621 518.83 0 799.16-99.749 949.91-200.005 75.39-50.138 118.33-100.371 142.44-138.224 12.04-18.92 19.38-34.728 23.71-45.859 2.17-5.566 3.58-9.961 4.46-12.99.44-1.514.75-2.687.94-3.495.1-.403.17-.715.22-.933l.06-.255.01-.074.01-.023c0-.008 0-.014-3.92-.811-3.92-.798-3.92-.803-3.92-.803v.004.035l-.04.178c-.04.166-.1.425-.19.776-.17.701-.44 1.767-.85 3.172-.82 2.811-2.16 6.981-4.23 12.317-4.16 10.671-11.26 26.008-23.01 44.464-23.5 36.897-65.64 86.33-140.12 135.859-148.98 99.078-427.57 198.667-945.48 198.667-226.85 0-329.81-13.25-472.92-82.816-71.75-34.882-153.6-83.933-266.16-152.718-14.73-9.007-30-18.351-45.83-28.045-105.04-64.301-235.17-143.968-403.8-242.544-111.98-65.459-217.98-81.398-320.2-64.576-102.1 16.8-200.16 66.232-296.46 131.045-85.91 57.817-170.68 128.057-255.8 198.59-10.28 8.523-20.57 17.051-30.87 25.562-95.61 79.009-191.93 156.575-291.46 216.062-98.178 58.68-194.254 42.62-293.68-10.47-80.539-42.997-162.673-109.961-249.224-180.527-20.586-16.783-41.422-33.771-62.545-50.688-109.69-87.847-226.924-173.588-356.1155-217.292z"/><path d="m2655.07 1236.79c-111.89-21.15-254.48-77.61-448.29-190.91-222.82-130.254-421.39-190.225-614.49-187.546-193.09 2.68-380.27 68-580.3 187.566-98.178 58.68-194.254 42.62-293.68-10.47-80.539-43.001-162.673-109.965-249.224-180.53-20.586-16.784-41.422-33.771-62.545-50.688-109.69-87.848-226.924-173.589-356.1155-217.292-129.4084-43.778-270.7055-45.342-428.2405 34.849l3.629 7.129c155.474-79.142 294.5246-77.54 422.0479-34.4 127.7401 43.213 244.0221 128.138 353.6781 215.958 20.956 16.783 41.678 33.68 62.194 50.408 86.596 70.609 169.513 138.219 250.808 181.626 100.825 53.83 200.075 70.93 301.548 10.28 199.26-119.103 385.06-183.782 576.32-186.436 191.25-2.654 388.39 56.707 610.33 186.456 194.2 113.52 337.69 170.47 450.85 191.86 113.3 21.41 196.08 7.14 268.7-21.48 36.23-14.27 69.89-32.1 103.42-50.73 7.09-3.93 14.18-7.91 21.28-11.89 26.53-14.88 53.32-29.9 81.74-43.83 71.89-35.25 153.98-63.39 266.76-63.39 518.83 0 799.16-99.743 949.91-199.999 75.39-50.137 118.33-100.371 142.44-138.224 12.04-18.92 19.38-34.728 23.71-45.859 2.17-5.565 3.58-9.96 4.46-12.989.44-1.515.75-2.688.94-3.495.1-.404.17-.716.22-.933l.06-.256.01-.073.01-.024c0-.007 0-.014-3.92-.811s-3.92-.802-3.92-.802v.004.035l-.04.177c-.04.166-.1.426-.19.776-.17.702-.44 1.767-.85 3.173-.82 2.81-2.16 6.98-4.23 12.316-4.16 10.671-11.26 26.009-23.01 44.464-23.5 36.897-65.64 86.33-140.12 135.86-148.98 99.077-427.57 198.66-945.48 198.66-114.3 0-197.59 28.57-270.28 64.21-28.64 14.04-55.67 29.19-82.23 44.09-7.08 3.97-14.12 7.92-21.15 11.82-33.48 18.59-66.75 36.2-102.47 50.28-71.29 28.09-152.54 42.17-264.29 21.06z"/><path d="m2654.99 1259.27c-111.85-18.65-254.41-73.43-448.21-186.72-222.82-130.257-421.39-190.229-614.49-187.549-193.09 2.679-380.27 68-580.3 187.569-98.178 58.68-194.254 42.61-293.68-10.47-80.54-43-162.673-109.968-249.225-180.534-20.585-16.783-41.421-33.771-62.544-50.688-109.69-87.847-226.924-173.588-356.1155-217.292-129.4084-43.777-270.7055-45.342-428.2405 34.849l3.629 7.13c155.474-79.142 294.5246-77.54 422.0479-34.401 127.7401 43.213 244.0221 128.139 353.6781 215.959 20.956 16.783 41.679 33.68 62.195 50.408 86.595 70.609 169.512 138.219 250.807 181.619 100.825 53.84 200.075 70.94 301.548 10.28 199.26-119.096 385.06-183.776 576.32-186.43 191.25-2.654 388.39 56.708 610.33 186.45 194.21 113.54 337.73 168.83 450.93 187.71 113.36 18.9 196.16 1.26 268.76-30.72 36.23-15.95 69.88-35.45 103.4-55.63 5.9-3.55 11.79-7.12 17.69-10.7 27.71-16.78 55.62-33.69 85.31-49.27 71.87-37.73 153.92-67.51 266.66-67.51 518.78 0 799.07-93.061 949.81-186.598 75.38-46.78 118.33-93.663 142.46-129.019 12.07-17.671 19.41-32.444 23.75-42.855 2.18-5.206 3.6-9.319 4.48-12.159.44-1.42.75-2.521.95-3.281.06-.227.11-.423.15-.589l.07-.292.06-.243.01-.071.01-.023c0-.008 0-.014-3.91-.867-3.91-.852-3.9-.857-3.9-.857l-.01.032-.04.161-.07.268c-.03.124-.06.273-.11.446-.17.648-.44 1.636-.85 2.941-.81 2.609-2.15 6.488-4.22 11.454-4.14 9.932-11.23 24.222-22.97 41.426-23.48 34.394-65.6 80.511-140.08 126.731-149.01 92.464-427.64 185.395-945.59 185.395-114.35 0-197.67 30.26-270.38 68.42-29.93 15.71-58.09 32.77-85.8 49.56-5.88 3.57-11.75 7.12-17.61 10.65-33.48 20.15-66.76 39.43-102.49 55.16-71.3 31.4-152.53 48.78-264.22 30.15z"/><path d="m2654.9 1281.76c-111.81-16.16-254.33-69.26-448.12-182.55-222.82-130.25-421.39-190.222-614.49-187.542-193.09 2.679-380.27 68-580.3 187.562-98.178 58.68-194.254 42.62-293.68-10.47-80.539-43-162.673-109.961-249.224-180.527-20.586-16.783-41.422-33.771-62.545-50.688-109.69-87.847-226.924-173.588-356.1155-217.292-129.4084-43.777-270.7055-45.342-428.2405 34.849l3.629 7.13c155.474-79.142 294.5246-77.54 422.0479-34.401 127.7401 43.213 244.0221 128.139 353.6781 215.959 20.956 16.783 41.678 33.679 62.194 50.408 86.596 70.609 169.513 138.222 250.808 181.622 100.825 53.83 200.075 70.93 301.548 10.28 199.26-119.099 385.06-183.779 576.32-186.433 191.25-2.654 388.39 56.708 610.33 186.453 194.23 113.54 337.77 167.19 451.02 183.55 113.41 16.4 196.23-4.63 268.81-39.96 36.22-17.62 69.86-38.79 103.37-60.53 4.82-3.13 9.64-6.26 14.46-9.4 28.76-18.74 57.69-37.58 88.52-54.83 71.86-40.2 153.88-71.62 266.57-71.62 518.75 0 798.99-86.381 949.69-173.197 75.38-43.422 118.35-86.95 142.5-119.805 12.08-16.422 19.44-30.157 23.79-39.85 2.18-4.845 3.6-8.678 4.49-11.329.45-1.325.76-2.355.96-3.068.1-.356.17-.633.22-.828l.06-.232.02-.069v-.022c.01-.008.01-.015-3.89-.93-3.89-.914-3.89-.92-3.89-.92l-.01.025-.03.144c-.04.137-.1.355-.18.652-.17.594-.44 1.503-.84 2.707-.81 2.408-2.14 5.994-4.21 10.592-4.13 9.193-11.2 22.436-22.93 38.389-23.45 31.896-65.56 74.701-140.05 117.612-149.03 85.851-427.71 172.129-945.7 172.129-114.39 0-197.75 31.96-270.48 72.64-31.09 17.39-60.26 36.4-89.01 55.13-4.82 3.13-9.61 6.26-14.41 9.37-33.49 21.72-66.78 42.66-102.52 60.05-71.32 34.71-152.53 55.37-264.17 39.24z"/><path d="m2654.81 1304.24c-111.76-13.67-254.26-65.08-448.03-178.36-222.82-130.254-421.39-190.225-614.49-187.546-193.09 2.68-380.27 67.996-580.3 187.566-98.178 58.68-194.254 42.62-293.68-10.47-80.539-43-162.673-109.97-249.224-180.53-20.586-16.784-41.422-33.771-62.545-50.689-109.69-87.847-226.924-173.588-356.1155-217.292-129.4084-43.777-270.7055-45.342-428.2405 34.85l3.629 7.129c155.474-79.142 294.5246-77.54 422.0479-34.4 127.7401 43.212 244.0221 128.138 353.6781 215.958 20.956 16.783 41.678 33.68 62.194 50.408 86.596 70.606 169.513 138.216 250.808 181.626 100.825 53.83 200.075 70.93 301.548 10.28 199.26-119.1 385.06-183.783 576.32-186.437 191.25-2.654 388.39 56.707 610.33 186.457 194.24 113.54 337.82 165.54 451.1 179.4 113.46 13.87 196.3-10.53 268.86-49.21 36.21-19.3 69.84-42.14 103.35-65.44 3.84-2.67 7.68-5.34 11.52-8.02 29.72-20.72 59.57-41.52 91.44-60.45 71.85-42.68 153.84-75.74 266.48-75.74 518.71 0 798.9-79.704 949.58-159.798 75.36-40.062 118.34-80.232 142.52-110.581 12.09-15.17 19.46-27.867 23.83-36.84 2.18-4.486 3.62-8.038 4.51-10.501.45-1.231.76-2.189.96-2.855.1-.333.18-.593.23-.778.03-.092.05-.165.06-.219l.02-.067.01-.022c0-.009 0-.016-3.88-1.002-3.87-.987-3.87-.995-3.87-.995l-.01.02-.03.126c-.04.122-.09.319-.18.589-.16.54-.43 1.371-.83 2.474-.8 2.206-2.12 5.5-4.18 9.727-4.12 8.454-11.18 20.653-22.9 35.358-23.42 29.401-65.51 68.897-140.02 108.502-149.06 79.24-427.79 158.862-945.82 158.862-114.44 0-197.83 33.65-270.57 76.86-32.14 19.09-62.23 40.07-91.93 60.77-3.84 2.68-7.67 5.35-11.51 8.02-33.5 23.29-66.79 45.89-102.54 64.94-71.34 38.03-152.54 61.98-264.13 48.32z"/><path d="m2654.73 1326.74c-111.72-11.19-254.19-60.92-447.95-174.19-222.82-130.26-421.39-190.229-614.49-187.549-193.09 2.679-380.27 67.999-580.3 187.569-98.507 58.87-194.848 54.14-294.212 18.46-81.114-29.13-163.838-78.73-251.098-131.04-19.955-11.96-40.148-24.07-60.612-36.1-219.504-129.098-468.8865-249.133-783.883-88.788l3.629 7.129c311.0219-158.321 557.012-40.356 776.198 88.549 20.296 11.94 40.375 23.98 60.26 35.9 87.297 52.34 170.876 102.45 252.802 131.88 100.887 36.23 199.872 41.33 301.016-19.13 199.26-119.1 385.06-183.776 576.32-186.43 191.25-2.654 388.39 56.71 610.33 186.45 194.25 113.56 337.86 163.9 451.19 175.25 113.51 11.36 196.36-16.43 268.9-58.45 36.19-20.97 69.82-45.49 103.32-70.34 2.95-2.19 5.89-4.37 8.84-6.56 30.6-22.74 61.28-45.54 94.1-66.17 71.85-45.16 153.8-79.85 266.4-79.85 518.67 0 798.82-73.028 949.45-146.4 75.35-36.701 118.34-73.51 142.54-101.347 12.1-13.916 19.49-25.573 23.88-33.826 2.19-4.125 3.63-7.397 4.53-9.671.45-1.137.76-2.025.97-2.644.11-.31.18-.553.23-.727l.07-.208.02-.065v-.022c0-.009.01-.016-3.85-1.087-1.65-.459-2.6-.722-3.13-.874-.72-.2-.72-.205-.72-.205v.012l-.03.109c-.04.107-.09.283-.17.525-.17.486-.43 1.238-.83 2.24-.79 2.003-2.11 5.004-4.16 8.863-4.1 7.716-11.14 18.872-22.85 32.331-23.4 26.913-65.48 63.104-140 99.403-149.11 72.628-427.89 145.593-945.95 145.593-114.49 0-197.91 35.35-270.65 81.08-33.11 20.81-64.03 43.79-94.59 66.49-2.96 2.2-5.91 4.4-8.87 6.58-33.5 24.86-66.8 49.13-102.56 69.84-71.37 41.35-152.55 68.58-264.09 57.42z"/><path d="m2654.64 1349.23c-111.68-8.7-254.11-56.75-447.86-170.02-222.82-130.25-421.39-190.222-614.49-187.542-193.09 2.679-380.27 68.002-580.3 187.562-98.507 58.88-194.848 54.15-294.212 18.46-81.114-29.13-163.838-78.72-251.098-131.03-19.955-11.97-40.148-24.07-60.612-36.11-219.504-129.091-468.8865-249.126-783.883-88.781l3.629 7.129c311.0219-158.321 557.012-40.356 776.198 88.552 20.296 11.93 40.375 23.97 60.26 35.9 87.297 52.34 170.876 102.45 252.802 131.87 100.887 36.24 199.872 41.34 301.016-19.12 199.26-119.1 385.06-183.78 576.32-186.433 191.25-2.654 388.39 56.703 610.33 186.453 194.26 113.56 337.91 162.25 451.28 171.08 113.55 8.85 196.41-22.32 268.92-67.69 36.19-22.64 69.81-48.82 103.3-75.23 2.13-1.68 4.26-3.36 6.39-5.05 31.41-24.78 62.85-49.59 96.55-71.94 71.83-47.63 153.76-83.96 266.31-83.96 518.64 0 798.73-66.353 949.32-133.005 75.32-33.339 118.32-66.784 142.54-92.101 12.11-12.658 19.52-23.272 23.93-30.804 2.2-3.764 3.65-6.755 4.56-8.842.45-1.043.77-1.859.98-2.433.11-.287.19-.513.24-.676l.07-.198.02-.063v-.022c.01-.009.01-.016-3.82-1.186-1.4-.427-2.28-.699-2.85-.872-.97-.301-.97-.307-.97-.307v.005l-.03.09c-.03.092-.09.247-.16.462-.16.43-.43 1.103-.82 2.004-.78 1.8-2.09 4.51-4.13 8-4.08 6.979-11.11 17.094-22.8 29.311-23.38 24.433-65.46 57.322-140 90.316-149.15 66.015-427.98 132.321-946.08 132.321-114.54 0-197.98 37.05-270.73 85.3-33.99 22.53-65.67 47.53-97.02 72.28-2.15 1.69-4.3 3.39-6.45 5.08-33.51 26.43-66.82 52.36-102.59 74.74-71.39 44.67-152.57 75.18-264.06 66.5z"/><path d="m2654.55 1371.72c-111.63-6.21-254.04-52.59-447.77-165.84-222.82-130.25-421.39-190.23-614.49-187.55-193.09 2.68-380.27 68-580.3 187.57-98.507 58.88-194.848 54.15-294.212 18.46-81.114-29.13-163.838-78.72-251.098-131.04-19.955-11.96-40.148-24.07-60.612-36.1-219.504-129.095-468.8865-249.13-783.883-88.785l3.629 7.13c311.0219-158.322 557.012-40.357 776.198 88.545 20.296 11.94 40.375 23.98 60.26 35.9 87.297 52.35 170.876 102.46 252.802 131.88 100.887 36.23 199.872 41.33 301.016-19.12 199.26-119.1 385.06-183.78 576.32-186.44 191.25-2.65 388.39 56.71 610.33 186.46 194.28 113.57 337.95 160.61 451.37 166.92 113.6 6.32 196.46-28.23 268.94-76.94 36.18-24.31 69.79-52.16 103.28-80.13l4.14-3.46c32.16-26.86 64.29-53.7 98.79-77.77 71.83-50.12 153.73-88.08 266.23-88.08 518.6 0 798.64-59.68 949.18-119.613 75.29-29.977 118.29-60.055 142.53-82.844 12.12-11.396 19.55-20.963 23.98-27.771 2.21-3.403 3.67-6.112 4.59-8.01.46-.95.78-1.696 1-2.224.11-.264.19-.473.25-.626.03-.077.05-.139.06-.187l.03-.062v-.022c.01-.009.01-.017-3.78-1.304-3.78-1.287-3.78-1.293-3.78-1.299l-.03.07c-.02.076-.08.209-.15.396-.16.376-.41.97-.8 1.769-.77 1.597-2.07 4.016-4.1 7.139-4.06 6.245-11.07 15.323-22.75 26.302-23.36 21.961-65.44 51.55-140.01 81.24-149.2 59.4-428.09 119.046-946.22 119.046-114.58 0-198.06 38.75-270.81 89.52-34.79 24.27-67.17 51.32-99.25 78.12l-4.23 3.53c-33.52 28-66.83 55.59-102.61 79.63-71.42 48-152.59 81.8-264.04 75.59z"/><path d="m2654.46 1394.22c-111.59-3.74-253.96-48.43-447.68-161.67-222.82-130.26-421.39-190.23-614.49-187.55-193.09 2.68-380.27 68-580.3 187.57-98.507 58.87-194.848 54.14-294.212 18.46-81.114-29.13-163.839-78.73-251.098-131.04-19.955-11.96-40.148-24.07-60.612-36.1-219.504-129.098-468.8865-249.133-783.883-88.788l3.629 7.128c311.0219-158.32 557.012-40.355 776.198 88.55 20.296 11.94 40.375 23.98 60.26 35.9 87.297 52.34 170.876 102.45 252.802 131.88 100.887 36.23 199.872 41.33 301.016-19.13 199.26-119.1 385.06-183.78 576.32-186.43 191.25-2.65 388.39 56.71 610.33 186.45 194.29 113.58 338 158.97 451.46 162.76 113.64 3.81 196.5-34.13 268.96-86.18 36.16-25.97 69.77-55.49 103.25-85.02l2.08-1.83c32.84-28.96 65.61-57.86 100.84-83.66 71.83-52.6 153.71-92.19 266.16-92.19 518.57 0 798.55-53.01 949.03-106.225 75.26-26.616 118.25-53.324 142.51-73.576 12.13-10.13 19.57-18.645 24.02-24.724 2.22-3.039 3.7-5.465 4.63-7.175.47-.855.8-1.53 1.02-2.013.11-.241.2-.434.26-.577.03-.071.05-.13.07-.177l.02-.06.01-.022c.01-.01.01-.018-3.73-1.448-3.73-1.429-3.73-1.436-3.73-1.442l-.02.043c-.02.061-.07.172-.14.332-.15.319-.4.835-.78 1.532-.76 1.396-2.05 3.524-4.07 6.282-4.03 5.515-11.02 13.562-22.69 23.308-23.35 19.498-65.44 45.79-140.05 72.174-149.25 52.784-428.2 105.768-946.36 105.768-114.63 0-198.13 40.46-270.89 93.74-35.53 26.02-68.53 55.12-101.29 84.01l-2.19 1.93c-33.52 29.56-66.84 58.82-102.63 84.53-71.46 51.32-152.62 88.4-264.03 84.68z"/><path d="m2654.37 1416.72c-111.54-1.26-253.88-44.27-447.59-157.51-222.82-130.25-421.39-190.22-614.49-187.54-193.09 2.68-380.27 68-580.3 187.56-98.507 58.88-194.848 54.15-294.212 18.46-81.114-29.13-163.838-78.72-251.098-131.03-19.955-11.97-40.148-24.07-60.612-36.11-219.504-129.091-468.8865-249.126-783.883-88.78l3.629 7.13c311.0219-158.324 557.012-40.358 776.198 88.55 20.296 11.93 40.375 23.97 60.26 35.9 87.297 52.34 170.876 102.45 252.802 131.87 100.887 36.23 199.872 41.34 301.016-19.12 199.26-119.1 385.06-183.78 576.32-186.43 191.25-2.66 388.39 56.7 610.33 186.45 194.3 113.58 338.04 157.32 451.54 158.59 113.68 1.28 196.55-40.04 268.97-95.42 36.16-27.64 69.76-58.83 103.24-89.91l.16-.15c33.47-31.08 66.84-62.05 102.75-89.6 71.83-55.08 153.68-96.3 266.09-96.3 518.54 0 798.46-46.34 948.88-92.842 75.23-23.257 118.19-46.593 142.45-64.299 12.13-8.857 19.6-16.315 24.07-21.658 2.24-2.671 3.72-4.812 4.67-6.332.26-.411.48-.777.66-1.095.15-.27.28-.505.39-.705.11-.219.2-.395.26-.528l.08-.167.03-.058.01-.024c0-.009.01-.019-3.66-1.622-2.03-.889-2.93-1.288-3.33-1.468-.33-.144-.32-.15-.32-.15l-.01.015c-.03.046-.07.135-.14.267-.08.147-.19.346-.33.597-.12.201-.26.436-.42.703-.75 1.195-2.02 3.036-4.02 5.432-4.02 4.792-10.99 11.814-22.66 20.331-23.35 17.045-65.45 40.041-140.09 63.118-149.32 46.163-428.33 92.485-946.52 92.485-114.68 0-198.2 42.16-270.96 97.96-36.21 27.77-69.8 58.96-103.19 89.95l-.29.28c-33.53 31.12-66.86 62.05-102.66 89.42-71.48 54.66-152.65 95.03-264.02 93.78z"/><path d="m2654.28 1439.22c-111.5 1.22-253.8-40.11-447.5-153.34-222.82-130.25-421.39-190.22-614.49-187.55-193.09 2.68-380.27 68-580.3 187.57-98.507 58.88-194.848 54.15-294.212 18.46-81.114-29.13-163.838-78.72-251.098-131.04-19.955-11.96-40.148-24.07-60.612-36.1-219.504-129.09-468.8865-249.129-783.883-88.78l3.629 7.13c311.0219-158.326 557.012-40.36 776.198 88.55 20.296 11.93 40.374 23.97 60.26 35.89 87.297 52.35 170.876 102.46 252.802 131.88 100.887 36.23 199.872 41.33 301.016-19.12 199.26-119.1 385.06-183.78 576.32-186.44 191.25-2.65 388.39 56.71 610.33 186.46 194.32 113.59 338.09 155.67 451.63 154.43 113.72-1.25 196.58-45.95 268.97-104.66 35.57-28.85 68.68-61.13 101.63-93.26l1.59-1.55c33.53-32.69 66.94-65.17 102.91-94 71.83-57.57 153.66-100.42 266.02-100.42 518.52 0 798.37-39.67 948.72-79.463 75.19-19.899 118.13-39.865 142.37-55.016 12.13-7.58 19.61-13.972 24.1-18.569 2.25-2.3 3.75-4.151 4.72-5.477.21-.292.4-.559.56-.799.21-.305.38-.567.51-.784.12-.195.22-.355.29-.477.03-.062.06-.114.08-.157l.03-.057.01-.023c.01-.011.01-.02-3.55-1.841-3.56-1.82-3.55-1.829-3.55-1.836v-.011c-.01.03-.05.098-.12.203-.13.211-.36.571-.72 1.07-.73.998-1.98 2.556-3.98 4.595-3.99 4.08-10.95 10.084-22.62 17.379-23.36 14.599-65.49 34.3-140.18 54.067-149.38 39.536-428.45 79.196-946.67 79.196-114.73 0-198.27 43.87-271.03 102.18-36.32 29.11-70 61.86-103.48 94.51l-1.47 1.43c-33.04 32.22-65.92 64.28-101.21 92.89-71.51 58-152.68 101.65-264.02 102.88z"/><path d="m2654.2 1461.72c-111.47 3.7-253.74-35.95-447.42-149.17-222.82-130.26-421.39-190.23-614.49-187.55-193.09 2.68-380.27 68-580.3 187.57-98.507 58.87-194.848 54.14-294.212 18.46-81.114-29.13-163.839-78.73-251.098-131.04-19.955-11.96-40.148-24.07-60.612-36.1-219.504-129.1-468.8865-249.133-783.883-88.79l3.629 7.13c311.0219-158.32 557.012-40.36 776.198 88.55 20.296 11.94 40.375 23.98 60.26 35.9 87.297 52.34 170.876 102.45 252.802 131.88 100.887 36.23 199.872 41.33 301.016-19.13 199.26-119.1 385.06-183.78 576.32-186.43 191.25-2.65 388.39 56.71 610.33 186.45 194.33 113.6 338.14 154.03 451.72 150.26 113.75-3.77 196.6-51.85 268.97-113.89 34.98-29.99 67.57-63.3 99.99-96.42l3.21-3.28c33.52-34.25 66.93-68.18 102.9-98.26 71.84-60.06 153.65-104.53 265.96-104.53 518.49 0 798.28-33 948.56-66.09 75.14-16.546 118.04-33.143 142.26-45.733 12.11-6.299 19.59-11.616 24.1-15.455 2.26-1.921 3.78-3.475 4.77-4.6.49-.563.85-1.018 1.1-1.358.08-.112.16-.21.22-.297l.08-.126c.04-.056.07-.104.1-.145l.03-.055.02-.023c0-.011.01-.021-3.4-2.115s-3.4-2.103-3.39-2.111v-.014l.01-.016c-.01.02-.04.066-.1.138-.11.16-.34.445-.69.85-.71.808-1.94 2.09-3.93 3.778-3.97 3.38-10.93 8.375-22.61 14.451-23.39 12.16-65.57 28.564-140.29 45.018-149.46 32.913-428.59 65.903-946.84 65.903-114.78 0-198.34 45.57-271.09 106.4-36.32 30.36-70 64.58-103.49 98.79l-3.11 3.18c-32.49 33.2-64.87 66.29-99.58 96.05-71.55 61.33-152.72 108.27-264.02 111.97z"/><path d="m2654.11 1484.22c-111.43 6.18-253.66-31.79-447.33-145.01-222.82-130.25-421.39-190.22-614.49-187.54-193.09 2.68-380.27 68-580.3 187.56-98.507 58.88-194.848 54.15-294.212 18.46-81.114-29.13-163.839-78.72-251.098-131.03-19.955-11.97-40.148-24.07-60.612-36.11-219.504-129.09-468.8865-249.126-783.883-88.78l3.629 7.13c311.0219-158.323 557.012-40.36 776.198 88.55 20.296 11.93 40.375 23.97 60.26 35.9 87.297 52.34 170.876 102.45 252.802 131.87 100.887 36.24 199.872 41.34 301.016-19.12 199.26-119.1 385.06-183.78 576.32-186.43 191.25-2.66 388.39 56.71 610.33 186.45 194.34 113.61 338.18 152.39 451.81 146.09 113.77-6.3 196.62-57.76 268.95-123.12 34.43-31.11 66.55-65.44 98.46-99.55l4.73-5.05c33.52-35.81 66.93-71.19 102.9-102.51 71.85-62.55 153.64-108.65 265.9-108.65 518.46 0 798.19-26.33 948.39-52.72 75.1-13.199 117.95-26.43 142.11-36.457 12.1-5.016 19.56-9.252 24.08-12.317 2.26-1.534 3.79-2.782 4.79-3.695.5-.457.87-.831 1.14-1.116.13-.143.24-.263.32-.361.04-.049.08-.092.11-.129l.04-.051.02-.023c0-.01.01-.02-3.16-2.461-3.17-2.44-3.16-2.449-3.15-2.458l.01-.015.02-.023.01-.012c-.01.008-.04.038-.08.089-.11.113-.32.33-.66.645-.7.63-1.92 1.645-3.9 2.991-3.97 2.695-10.94 6.688-22.65 11.547-23.44 9.724-65.67 22.826-140.43 35.964-149.54 26.272-428.74 52.602-947.01 52.602-114.82 0-198.41 47.28-271.15 110.61-36.32 31.63-70 67.31-103.49 103.09l-4.66 4.97c-31.97 34.17-63.88 68.27-98.05 99.15-71.58 64.68-152.76 114.91-264.03 121.07z"/><path d="m2654.02 1506.73c-111.38 8.64-253.59-27.64-447.24-140.85-222.82-130.25-421.39-190.22-614.49-187.55-193.09 2.68-380.27 68-580.3 187.57-98.507 58.88-194.848 54.15-294.212 18.46-81.114-29.13-163.839-78.72-251.098-131.04-19.955-11.96-40.148-24.07-60.612-36.1-219.504-129.09-468.8865-249.129-783.883-88.78l3.629 7.13c311.0219-158.326 557.012-40.36 776.198 88.55 20.296 11.93 40.375 23.97 60.26 35.89 87.298 52.35 170.876 102.46 252.802 131.88 100.887 36.23 199.872 41.33 301.016-19.12 199.26-119.1 385.06-183.78 576.32-186.44 191.25-2.65 388.39 56.71 610.33 186.46 194.36 113.61 338.23 150.74 451.9 141.91 113.8-8.83 196.63-63.66 268.94-132.35 33.91-32.21 65.58-67.55 97.03-102.64 2.04-2.28 4.09-4.56 6.14-6.84 33.51-37.37 66.93-74.21 102.9-106.78 71.85-65.04 153.63-112.76 265.84-112.76 518.44 0 798.1-19.66 948.22-39.36 75.06-9.85 117.84-19.723 141.94-27.19 12.05-3.735 19.49-6.887 23.98-9.165 2.25-1.141 3.78-2.071 4.79-2.757.5-.343.88-.627 1.16-.848.13-.11.24-.205.33-.284.05-.039.09-.075.12-.106l.05-.044.02-.02c.01-.009.02-.018-2.77-2.889-1.74-1.796-2.39-2.472-2.63-2.728-.14-.153-.14-.159-.14-.159l.02-.015.02-.022.03-.021s-.02.015-.07.054-.12.098-.23.178c-.11.077-.24.174-.41.289-.69.466-1.91 1.226-3.91 2.237-3.99 2.023-10.98 5.018-22.73 8.658-23.51 7.283-65.8 17.079-140.61 26.892-149.62 19.64-428.88 39.3-947.18 39.3-114.87 0-198.48 48.99-271.21 114.83-36.32 32.88-70 70.02-103.49 107.37-2.03 2.26-4.06 4.52-6.08 6.78-31.5 35.14-62.97 70.26-96.64 102.24-71.61 68.02-152.8 121.54-264.05 130.18z"/><path d="m2653.93 1529.24c-111.34 11.11-253.51-23.5-447.15-136.69-222.82-130.26-421.39-190.23-614.49-187.55-193.09 2.68-380.27 68-580.3 187.57-98.507 58.87-194.848 54.14-294.212 18.46-81.114-29.13-163.838-78.73-251.098-131.04-19.955-11.96-40.148-24.07-60.612-36.1-219.504-129.1-468.8865-249.133-783.883-88.79l3.629 7.13c311.0219-158.32 557.012-40.35 776.198 88.55 20.296 11.94 40.375 23.98 60.26 35.9 87.297 52.34 170.876 102.45 252.802 131.88 100.887 36.23 199.872 41.33 301.016-19.13 199.26-119.1 385.06-183.78 576.32-186.43 191.25-2.65 388.39 56.71 610.33 186.45 194.37 113.63 338.28 149.1 451.99 137.75 113.82-11.37 196.64-69.58 268.92-141.58 33.42-33.31 64.68-69.65 95.69-105.71 2.49-2.89 4.97-5.78 7.46-8.67 33.51-38.93 66.93-77.22 102.91-111.03 71.86-67.54 153.62-116.88 265.78-116.88 518.41 0 798.01-13 948.04-26.01 75.02-6.51 117.72-13.03 141.73-17.94 12.01-2.46 19.4-4.53 23.83-6.02 2.23-.74 3.73-1.35 4.72-1.79.49-.23.87-.41 1.14-.56.13-.07.24-.13.33-.18l.12-.07.05-.03.02-.02c.01 0 .02-.01-2.14-3.377s-2.15-3.373-2.14-3.378l.02-.011.02-.015.03-.015s-.02.01-.07.037c-.1.052-.31.16-.66.318-.71.317-1.96.829-3.98 1.506-4.04 1.356-11.1 3.349-22.89 5.765-23.59 4.83-65.96 11.32-140.82 17.81-149.7 12.98-429.03 25.98-947.35 25.98-114.92 0-198.54 50.71-271.26 119.05-36.32 34.13-70 72.74-103.49 111.65-2.48 2.87-4.95 5.75-7.43 8.63-31.05 36.1-62.11 72.22-95.31 105.29-71.64 71.37-152.84 128.18-264.07 139.29z"/><path d="m2653.84 1551.75c-111.3 13.58-253.44-19.35-447.06-132.54-222.82-130.25-421.39-190.22-614.49-187.54-193.09 2.68-380.27 68-580.3 187.56-98.507 58.88-194.848 54.15-294.212 18.46-81.114-29.13-163.839-78.72-251.099-131.03-19.955-11.97-40.147-24.07-60.611-36.11-219.504-129.09-468.8865-249.13-783.883-88.78l3.629 7.13c311.0219-158.32 557.012-40.36 776.198 88.55 20.296 11.93 40.375 23.97 60.26 35.9 87.297 52.34 170.876 102.45 252.802 131.87 100.887 36.24 199.872 41.34 301.016-19.12 199.26-119.1 385.06-183.78 576.32-186.43 191.25-2.66 388.39 56.71 610.33 186.45 194.39 113.63 338.33 147.45 452.07 133.57 113.84-13.9 196.65-75.48 268.9-150.8 32.97-34.38 63.84-71.72 94.44-108.74 2.9-3.52 5.8-7.02 8.7-10.53 33.51-40.49 66.93-80.24 102.91-115.29 71.87-70.04 153.61-121 265.73-121 518.39 0 797.92-6.33 947.87-12.67 74.97-3.16 117.59-6.34 141.5-8.72 11.95-1.19 19.26-2.19 23.61-2.9 2.17-.36 3.62-.64 4.55-.85.47-.1.81-.18 1.05-.24.12-.04.22-.06.29-.08l.1-.03.03-.01.02-.01s.01 0-.11-.4c-.14-.45-.44-1.4-1.07-3.42-.62-2-.92-2.95-1.06-3.4-.12-.42-.12-.42-.12-.42l-.08.02c-.13.03-.38.09-.76.18-.76.16-2.07.42-4.13.76-4.14.68-11.27 1.66-23.12 2.84-23.69 2.36-66.15 5.53-141.04 8.69-149.79 6.33-429.18 12.66-947.53 12.66-114.97 0-198.6 52.42-271.31 123.27-36.32 35.39-70 75.45-103.49 115.92-2.9 3.5-5.79 6.99-8.68 10.49-30.64 37.07-61.31 74.18-94.07 108.34-71.67 74.71-152.88 134.82-264.1 148.4z"/><path d="m2653.76 1574.26c-111.27 16.05-253.37-15.2-446.98-128.38-222.82-130.25-421.39-190.23-614.49-187.55-193.09 2.68-380.27 68-580.3 187.57-98.507 58.88-194.848 54.15-294.212 18.46-81.114-29.13-163.838-78.72-251.098-131.04-19.955-11.96-40.148-24.07-60.612-36.1-219.504-129.09-468.8865-249.13-783.883-88.78l3.629 7.13c311.0219-158.33 557.012-40.36 776.198 88.55 20.296 11.93 40.375 23.97 60.26 35.89 87.297 52.35 170.876 102.46 252.802 131.88 100.887 36.23 199.872 41.33 301.016-19.12 199.26-119.1 385.06-183.78 576.32-186.44 191.25-2.65 388.39 56.71 610.33 186.46 194.4 113.64 338.38 145.8 452.16 129.38 113.85-16.42 196.65-81.37 268.87-160.01 32.55-35.45 63.04-73.77 93.26-111.76 3.29-4.14 6.58-8.27 9.87-12.4 33.51-42.05 66.93-83.26 102.91-119.56 71.89-72.53 153.61-125.11 265.68-125.11 518.37 0 797.82.34 947.69.67 74.93.17 117.46.33 141.26.46 11.9.06 19.11.11 23.35.15 2.12.02 3.49.03 4.33.04l.89.01.2.01h.05.01l.06-4c.07-4 .07-4 .07-4h-.01-.06l-.21-.01-.9-.01c-.86-.01-2.24-.02-4.36-.04-4.25-.04-11.47-.09-23.38-.15-23.81-.13-66.35-.29-141.28-.46-149.88-.33-429.34-.67-947.71-.67-115.02 0-198.67 54.13-271.36 127.48-36.32 36.64-69.99 78.17-103.49 120.21-3.29 4.12-6.58 8.26-9.86 12.39-30.25 38.02-60.56 76.12-92.9 111.34-71.69 78.06-152.92 141.46-264.12 157.51z"/><path d="m2653.67 1596.77c-111.23 18.52-253.3-11.05-446.89-124.22-222.82-130.26-421.39-190.23-614.49-187.55-193.09 2.68-380.27 68-580.3 187.57-98.507 58.87-194.848 54.14-294.212 18.46-81.114-29.13-163.838-78.73-251.098-131.04-19.955-11.96-40.148-24.07-60.612-36.1-219.504-129.1-468.8865-249.13-783.883-88.79l3.629 7.13c311.0219-158.32 557.012-40.35 776.198 88.55 20.296 11.94 40.375 23.98 60.26 35.9 87.297 52.34 170.876 102.45 252.802 131.88 100.887 36.23 199.872 41.33 301.016-19.13 199.26-119.1 385.06-183.78 576.32-186.43 191.25-2.65 388.39 56.71 610.33 186.45 194.42 113.66 338.43 144.16 452.25 125.21 113.86-18.96 196.64-87.27 268.83-169.23 32.15-36.5 62.3-75.81 92.16-114.76 3.65-4.77 7.31-9.53 10.96-14.29 33.51-43.61 66.94-86.27 102.91-123.82 71.91-75.03 153.62-129.23 265.64-129.23 518.34 0 797.73 7 947.51 14 74.89 3.5 117.34 6.99 141.02 9.6 11.84 1.31 18.97 2.39 23.09 3.14 2.06.37 3.36.65 4.12.84.37.09.61.15.74.19l.07.02c-.01 0-.01-.01 1.29-3.79 1.31-3.78 1.3-3.78 1.29-3.78l-.01-.01-.04-.01-.1-.03-.12-.04-.18-.05c-.24-.07-.59-.16-1.06-.28-.94-.23-2.39-.54-4.58-.94-4.36-.78-11.67-1.89-23.63-3.21-23.92-2.63-66.55-6.14-141.53-9.64-149.95-7.01-429.49-14.01-947.88-14.01-115.06 0-198.73 55.85-271.41 131.7-36.32 37.89-69.98 80.88-103.48 124.48-3.66 4.76-7.32 9.53-10.98 14.3-29.87 38.97-59.84 78.05-91.8 114.33-71.71 81.41-152.96 148.12-264.15 166.63z"/><path d="m2653.59 1619.28c-111.2 20.99-253.23-6.9-446.81-120.07-222.82-130.25-421.39-190.22-614.49-187.54-193.09 2.68-380.27 68-580.3 187.56-98.507 58.88-194.848 54.15-294.212 18.46-81.114-29.13-163.839-78.72-251.098-131.03-19.955-11.97-40.148-24.07-60.612-36.11-219.504-129.09-468.8865-249.13-783.883-88.78l3.629 7.13c311.0219-158.32 557.012-40.36 776.198 88.55 20.296 11.93 40.375 23.97 60.26 35.9 87.298 52.34 170.876 102.45 252.802 131.87 100.887 36.24 199.872 41.34 301.016-19.12 199.26-119.1 385.06-183.78 576.32-186.43 191.25-2.66 388.39 56.7 610.33 186.45 194.43 113.66 338.48 142.51 452.33 121.03 113.87-21.49 196.63-93.17 268.81-178.45 31.76-37.53 61.57-77.82 91.09-117.71 4.01-5.42 8.01-10.83 12.01-16.22 33.51-45.17 66.94-89.3 102.92-128.09 71.91-77.53 153.62-133.35 265.59-133.35 518.32 0 797.64 13.67 947.33 27.32 74.86 6.83 117.22 13.64 140.8 18.72 11.79 2.54 18.83 4.63 22.87 6.05 2.02.71 3.27 1.25 3.97 1.58.35.17.56.28.66.34v-.01c-.01-.01-.02-.01 2.21-3.33 2.24-3.32 2.23-3.32 2.22-3.33l-.02-.01-.05-.04-.12-.07c-.09-.06-.2-.12-.34-.2-.27-.15-.64-.35-1.14-.58-.99-.47-2.5-1.11-4.73-1.89-4.44-1.57-11.83-3.75-23.85-6.33-24.02-5.17-66.73-12.03-141.75-18.87-150.04-13.68-429.64-27.35-948.06-27.35-115.11 0-198.79 57.56-271.46 135.91-36.31 39.15-69.97 83.6-103.48 128.76-4 5.4-8.01 10.81-12.01 16.23-29.54 39.91-59.18 79.98-90.77 117.3-71.74 84.76-153 154.77-264.18 175.75zm1857.53-511.94c.03.01.05.03.06.03l-.02-.01-.03-.02z"/><path d="m2653.5 1641.8c-111.17 23.45-253.16-2.77-446.72-115.92-222.82-130.25-421.39-190.23-614.49-187.55-193.09 2.68-380.27 68-580.3 187.57-98.507 58.88-194.848 54.15-294.212 18.46-81.114-29.13-163.839-78.72-251.098-131.04-19.955-11.96-40.148-24.07-60.612-36.1-219.504-129.09-468.8865-249.13-783.883-88.78l3.629 7.13c311.0219-158.33 557.012-40.36 776.198 88.55 20.296 11.93 40.375 23.97 60.26 35.89 87.297 52.35 170.876 102.46 252.802 131.88 100.887 36.23 199.872 41.33 301.016-19.12 199.26-119.1 385.06-183.78 576.32-186.44 191.25-2.65 388.39 56.71 610.33 186.46 194.45 113.67 338.53 140.86 452.41 116.84s196.62-99.06 268.77-187.65c31.42-38.58 60.92-79.85 90.12-120.69 4.33-6.06 8.66-12.11 12.98-18.14 33.51-46.73 66.94-92.31 102.92-132.35 71.93-80.04 153.62-137.47 265.55-137.47 518.3 0 797.55 20.34 947.16 40.63 74.81 10.15 117.09 20.28 140.59 27.81 11.74 3.76 18.74 6.85 22.73 8.94 1.99 1.05 3.21 1.83 3.9 2.32.34.24.54.4.64.48.05.04.07.06.07.06l-.03-.02-.02-.03-.01-.01c-.01-.01-.02-.02 2.81-2.84 2.84-2.83 2.83-2.84 2.82-2.85l-.02-.02-.05-.04c-.03-.03-.07-.07-.12-.11-.09-.08-.2-.18-.33-.29-.28-.23-.66-.52-1.16-.88-1.01-.71-2.54-1.67-4.79-2.85-4.5-2.36-11.94-5.62-24-9.48-24.11-7.72-66.89-17.93-141.95-28.11-150.13-20.37-429.8-40.71-948.24-40.71-115.16 0-198.84 59.28-271.5 140.12-36.31 40.41-69.97 86.31-103.47 133.04-4.34 6.05-8.67 12.11-13.01 18.17-29.21 40.86-58.55 81.9-89.79 120.27-71.76 88.11-153.04 161.42-264.22 184.87z"/></g><g filter="url(#b)" opacity=".59"><circle cx="2569.33" cy="1094.33" fill="#0b0459" r="457.333"/></g><g filter="url(#c)"><circle cx="2053.33" cy="1095.33" fill="#0d0b66" fill-opacity=".8" r="525.333"/></g></g></svg>